<?xml version="1.0" standalone="no"?>
<!DOCTYPE svg PUBLIC "-//W3C//DTD SVG 20010904//EN"
 "http://www.w3.org/TR/2001/REC-SVG-20010904/DTD/svg10.dtd">
<svg version="1.0" xmlns="http://www.w3.org/2000/svg"
 width="632.000000pt" height="632.000000pt" viewBox="0 0 632.000000 632.000000"
 preserveAspectRatio="xMidYMid meet">
<metadata>
Created by potrace 1.11, written by Peter Selinger 2001-2013
</metadata>
<g transform="translate(0.000000,632.000000) scale(0.100000,-0.100000)"
fill="#000000" stroke="none">
<path d="M2970 6144 c-19 -2 -84 -9 -145 -15 -544 -53 -1112 -290 -1565 -653
-108 -86 -329 -305 -420 -416 -162 -196 -278 -376 -390 -605 -151 -308 -240
-605 -287 -952 -23 -176 -23 -568 0 -746 85 -637 360 -1228 780 -1674 281
-299 534 -488 882 -658 458 -225 926 -328 1420 -312 464 15 878 121 1285 327
1215 617 1865 1978 1584 3315 -53 248 -129 466 -249 710 -96 194 -177 328
-299 488 -494 650 -1217 1067 -2030 1173 -114 15 -490 27 -566 18z m177 -51
c-2 -5 -267 -657 -588 -1450 l-584 -1443 -893 0 -894 0 6 98 c53 766 356 1428
893 1953 511 500 1140 783 1868 842 84 7 196 7 192 0z m393 -19 c325 -40 610
-126 925 -279 893 -434 1517 -1304 1639 -2285 16 -127 28 -270 24 -270 -2 0
-647 644 -1433 1430 l-1430 1431 80 -6 c44 -4 132 -13 195 -21z m1728 -2872
c-452 -1 -825 1 -829 5 -4 5 -272 640 -594 1413 -323 773 -589 1410 -592 1415
-3 6 634 -629 1416 -1410 l1421 -1420 -822 -3z m-1457 1370 c313 -749 569
-1364 569 -1367 0 -3 -263 -5 -585 -5 l-585 0 1 1403 c1 1262 2 1399 16 1367
8 -19 271 -648 584 -1398z m-654 -1369 c-2 -2 -256 -2 -564 -1 l-561 3 561
1387 562 1386 3 -1386 c1 -762 1 -1387 -1 -1389z m-1210 -70 c-11 -38 -488
-1208 -495 -1215 -4 -4 -286 271 -627 612 l-620 620 874 0 c827 0 873 -1 868
-17z m1213 -1460 l0 -1478 -835 835 -836 836 252 619 c138 341 255 630 260
643 l9 22 575 0 575 0 0 -1477z m1657 490 c227 -543 411 -988 410 -990 -2 -1
-448 443 -992 987 l-990 990 580 0 580 0 412 -987z m1310 845 c-28 -616 -233
-1185 -601 -1671 -92 -121 -201 -245 -209 -237 -2 3 -195 460 -427 1015 -232
556 -424 1016 -427 1023 -4 9 166 12 832 12 l838 0 -6 -142z m-925 -2033
c-241 -224 -447 -367 -727 -505 -373 -184 -732 -279 -1152 -305 l-113 -8 0
1479 0 1479 1035 -1035 1034 -1034 -77 -71z m-3937 472 c-91 -225 -169 -415
-173 -423 -6 -12 -28 5 -93 73 -477 497 -764 1168 -804 1878 l-7 120 621 -620
621 -620 -165 -408z m1035 -463 l825 -826 -115 6 c-605 34 -1169 240 -1644
601 -61 46 -140 111 -176 143 l-64 59 93 229 c51 126 127 316 169 421 42 106
79 193 82 193 3 0 376 -372 830 -826z"/>
</g>
</svg>
